<?xml version="1.0" encoding="UTF-8" standalone="no"?>
<!DOCTYPE svg PUBLIC "-//W3C//DTD SVG 1.1//EN" "http://www.w3.org/Graphics/SVG/1.1/DTD/svg11.dtd">
<svg width="100%" height="100%" viewBox="0 0 438 612" version="1.1" xmlns="http://www.w3.org/2000/svg" xmlns:xlink="http://www.w3.org/1999/xlink" xml:space="preserve" xmlns:serif="http://www.serif.com/" style="fill-rule:evenodd;clip-rule:evenodd;stroke-linejoin:round;stroke-miterlimit:2;">
    <g id="Artboard1" transform="matrix(1,0,0,1,-67.4263,0)">
        <rect x="67.426" y="0" width="437.154" height="611.809" style="fill:none;"/>
        <g transform="matrix(1,0,0,1,-40.5903,-97.2441)">
            <path d="M224.136,506.056L188.537,506.056C181.081,506.056 175.028,500.003 175.028,492.547L175.028,453.745L187.028,453.745L187.028,492.547C187.028,493.38 187.704,494.056 188.537,494.056L224.136,494.056L224.136,506.056ZM429.051,494.056L464.65,494.056C465.483,494.056 466.159,493.38 466.159,492.547L466.159,453.745L478.159,453.745L478.159,492.547C478.159,500.003 472.106,506.056 464.65,506.056L429.051,506.056L429.051,494.056ZM429.051,133.944L464.65,133.944C472.106,133.944 478.159,139.997 478.159,147.453L478.159,186.255L466.159,186.255L466.159,147.453C466.159,146.62 465.483,145.944 464.65,145.944L429.051,145.944L429.051,133.944ZM224.136,133.944L224.136,145.944L188.537,145.944C187.704,145.944 187.028,146.62 187.028,147.453L187.028,186.255L175.028,186.255L175.028,147.453C175.028,139.997 181.081,133.944 188.537,133.944L224.136,133.944Z"/>
            <g transform="matrix(1.47546,0,0,1.81425,-184.545,-208.488)">
                <g transform="matrix(-0.321911,0,0,0.321911,462.671,210.274)">
                    <path d="M120.91,240.29C120.91,388.95 169.781,419.49 312.33,417.45C267.529,303.41 206.44,376.723 151.46,283.05C212.55,370.612 263.46,301.378 318.44,411.34C363.241,250.47 192.19,297.3 120.91,240.29Z" style="fill:rgb(56,102,3);"/>
                </g>
                <g transform="matrix(-0.321911,0,0,0.321911,462.671,210.274)">
                    <path d="M564.84,175.13C585.203,321.75 540.402,358.4 397.86,378.77C426.368,258.63 497.641,321.75 540.41,221.97C489.5,315.642 430.45,254.552 391.75,370.63C326.586,217.9 499.68,240.3 564.84,175.14L564.84,175.13Z" style="fill:rgb(56,102,3);"/>
                </g>
                <g transform="matrix(-0.321911,0,0,0.321911,462.671,210.274)">
                    <path d="M579.09,0C577.055,114.04 538.363,136.44 428.4,132.36C465.056,46.833 509.853,101.813 554.65,32.579C505.779,97.743 469.123,42.763 424.32,126.251C393.773,2.031 522.066,40.724 579.08,0.001L579.09,0Z" style="fill:rgb(56,102,3);"/>
                </g>
                <g transform="matrix(-0.321911,0,0,0.321911,462.671,210.274)">
                    <path d="M210.51,46.836C192.182,171.056 230.873,203.636 351.02,217.886C326.582,118.105 265.493,171.05 230.88,87.556C273.642,166.974 322.517,114.029 357.13,213.806C412.11,83.476 263.458,101.806 210.51,46.826L210.51,46.836Z" style="fill:rgb(56,102,3);"/>
                </g>
                <g transform="matrix(-0.321911,0,0,0.321911,462.671,210.274)">
                    <path d="M348.98,450.04L355.089,317.68C355.089,299.352 357.125,278.989 359.164,260.66C363.238,240.297 359.164,238.262 355.089,221.969C359.164,224.004 365.273,232.153 365.273,230.114C367.309,224.004 369.348,217.895 369.348,211.786C375.457,193.458 406.004,142.548 436.547,134.403C410.074,154.766 393.785,185.313 383.602,215.856C373.418,248.438 369.348,285.094 369.348,317.676C365.273,374.696 367.312,433.746 359.164,488.726C420.254,464.288 363.238,427.636 395.82,378.766C391.745,393.02 393.784,413.383 397.855,431.711C403.964,458.184 408.039,480.582 357.128,505.02L351.018,560L336.764,557.964C340.839,529.456 344.909,500.944 348.983,472.437C342.874,458.183 332.694,439.855 314.366,419.492C326.585,423.567 344.913,441.89 348.983,450.039L348.98,450.04Z" style="fill:rgb(56,102,3);fill-rule:nonzero;"/>
                </g>
            </g>
        </g>
        <g transform="matrix(10.8769,0,0,10.8769,118.999,549.915)">
            <g>
                <path d="M6.024,-8.4L6.024,-4.788L2.04,-4.788L2.04,-8.4L0.84,-8.4L0.84,0L2.04,0L2.04,-3.684L6.024,-3.684L6.024,0L7.224,0L7.224,-8.4L6.024,-8.4Z" style="fill:rgb(56,102,3);fill-rule:nonzero;"/>
                <path d="M11.568,-6.228C9.78,-6.228 8.484,-4.788 8.484,-3.036C8.484,-1.284 9.732,0.156 11.748,0.156C12.816,0.156 13.704,-0.264 14.244,-0.996L13.344,-1.572C13.008,-1.14 12.408,-0.888 11.748,-0.888C10.56,-0.888 9.816,-1.572 9.648,-2.568L14.484,-2.568C14.772,-4.836 13.224,-6.228 11.568,-6.228ZM9.648,-3.504C9.816,-4.512 10.524,-5.196 11.568,-5.196C12.6,-5.196 13.236,-4.536 13.38,-3.504L9.648,-3.504Z" style="fill:rgb(56,102,3);fill-rule:nonzero;"/>
                <path d="M18.036,-3.528C17.34,-3.672 16.5,-3.72 16.5,-4.404C16.5,-4.908 16.944,-5.244 17.544,-5.244C18.228,-5.244 18.588,-4.884 18.696,-4.548L19.716,-4.824C19.5,-5.724 18.624,-6.228 17.64,-6.228C16.32,-6.228 15.396,-5.436 15.396,-4.32C15.396,-3.42 15.888,-2.868 17.028,-2.616C17.868,-2.424 18.888,-2.424 18.888,-1.716C18.888,-1.176 18.444,-0.852 17.652,-0.852C16.668,-0.852 16.344,-1.284 16.248,-1.596L15.18,-1.236C15.42,-0.324 16.428,0.156 17.628,0.156C19.248,0.156 20.016,-0.744 20.016,-1.824C20.016,-2.736 19.524,-3.216 18.036,-3.528Z" style="fill:rgb(56,102,3);fill-rule:nonzero;"/>
                <path d="M24.468,-6.228C23.412,-6.228 22.704,-5.796 22.248,-5.232L22.248,-6.084L21.156,-6.084L21.156,2.316L22.248,2.316L22.248,-0.852C22.704,-0.276 23.412,0.156 24.468,0.156C26.364,0.156 27.492,-1.44 27.492,-3.036C27.492,-4.632 26.364,-6.228 24.468,-6.228ZM24.36,-0.888C23.016,-0.888 22.248,-1.836 22.248,-3.036C22.248,-4.236 23.016,-5.196 24.36,-5.196C25.608,-5.196 26.376,-4.26 26.376,-3.036C26.376,-1.812 25.608,-0.888 24.36,-0.888Z" style="fill:rgb(56,102,3);fill-rule:nonzero;"/>
                <path d="M28.692,0L29.796,0L29.796,-6.084L28.692,-6.084L28.692,0ZM29.244,-7.164C29.592,-7.164 29.868,-7.44 29.868,-7.788C29.868,-8.124 29.592,-8.412 29.244,-8.412C28.896,-8.412 28.62,-8.124 28.62,-7.788C28.62,-7.44 28.896,-7.164 29.244,-7.164Z" style="fill:rgb(56,102,3);fill-rule:nonzero;"/>
            </g>
        </g>
    </g>
</svg>
