<?xml version="1.0" encoding="UTF-8" standalone="no"?>
<!DOCTYPE svg PUBLIC "-//W3C//DTD SVG 1.1//EN" "http://www.w3.org/Graphics/SVG/1.1/DTD/svg11.dtd">
<svg width="100%" height="100%" viewBox="0 0 438 612" version="1.1" xmlns="http://www.w3.org/2000/svg" xmlns:xlink="http://www.w3.org/1999/xlink" xml:space="preserve" xmlns:serif="http://www.serif.com/" style="fill-rule:evenodd;clip-rule:evenodd;stroke-linejoin:round;stroke-miterlimit:2;">
    <g id="Artboard1" transform="matrix(1,0,0,1,-67.4263,0)">
        <rect x="67.426" y="0" width="437.154" height="611.809" style="fill:none;"/>
        <g transform="matrix(1,0,0,1,-40.5903,-97.2441)">
            <path d="M224.136,506.056L188.537,506.056C181.081,506.056 175.028,500.003 175.028,492.547L175.028,453.745L187.028,453.745L187.028,492.547C187.028,493.38 187.704,494.056 188.537,494.056L224.136,494.056L224.136,506.056ZM429.051,494.056L464.65,494.056C465.483,494.056 466.159,493.38 466.159,492.547L466.159,453.745L478.159,453.745L478.159,492.547C478.159,500.003 472.106,506.056 464.65,506.056L429.051,506.056L429.051,494.056ZM429.051,133.944L464.65,133.944C472.106,133.944 478.159,139.997 478.159,147.453L478.159,186.255L466.159,186.255L466.159,147.453C466.159,146.62 465.483,145.944 464.65,145.944L429.051,145.944L429.051,133.944ZM224.136,133.944L224.136,145.944L188.537,145.944C187.704,145.944 187.028,146.62 187.028,147.453L187.028,186.255L175.028,186.255L175.028,147.453C175.028,139.997 181.081,133.944 188.537,133.944L224.136,133.944Z"/>
            <g transform="matrix(1.47546,0,0,1.81425,-184.545,-208.488)">
                <g transform="matrix(-0.321911,0,0,0.321911,462.671,210.274)">
                    <path d="M120.91,240.29C120.91,388.95 169.781,419.49 312.33,417.45C267.529,303.41 206.44,376.723 151.46,283.05C212.55,370.612 263.46,301.378 318.44,411.34C363.241,250.47 192.19,297.3 120.91,240.29Z" style="fill:rgb(56,102,3);"/>
                </g>
                <g transform="matrix(-0.321911,0,0,0.321911,462.671,210.274)">
                    <path d="M564.84,175.13C585.203,321.75 540.402,358.4 397.86,378.77C426.368,258.63 497.641,321.75 540.41,221.97C489.5,315.642 430.45,254.552 391.75,370.63C326.586,217.9 499.68,240.3 564.84,175.14L564.84,175.13Z" style="fill:rgb(56,102,3);"/>
                </g>
                <g transform="matrix(-0.321911,0,0,0.321911,462.671,210.274)">
                    <path d="M579.09,0C577.055,114.04 538.363,136.44 428.4,132.36C465.056,46.833 509.853,101.813 554.65,32.579C505.779,97.743 469.123,42.763 424.32,126.251C393.773,2.031 522.066,40.724 579.08,0.001L579.09,0Z" style="fill:rgb(56,102,3);"/>
                </g>
                <g transform="matrix(-0.321911,0,0,0.321911,462.671,210.274)">
                    <path d="M210.51,46.836C192.182,171.056 230.873,203.636 351.02,217.886C326.582,118.105 265.493,171.05 230.88,87.556C273.642,166.974 322.517,114.029 357.13,213.806C412.11,83.476 263.458,101.806 210.51,46.826L210.51,46.836Z" style="fill:rgb(56,102,3);"/>
                </g>
                <g transform="matrix(-0.321911,0,0,0.321911,462.671,210.274)">
                    <path d="M348.98,450.04L355.089,317.68C355.089,299.352 357.125,278.989 359.164,260.66C363.238,240.297 359.164,238.262 355.089,221.969C359.164,224.004 365.273,232.153 365.273,230.114C367.309,224.004 369.348,217.895 369.348,211.786C375.457,193.458 406.004,142.548 436.547,134.403C410.074,154.766 393.785,185.313 383.602,215.856C373.418,248.438 369.348,285.094 369.348,317.676C365.273,374.696 367.312,433.746 359.164,488.726C420.254,464.288 363.238,427.636 395.82,378.766C391.745,393.02 393.784,413.383 397.855,431.711C403.964,458.184 408.039,480.582 357.128,505.02L351.018,560L336.764,557.964C340.839,529.456 344.909,500.944 348.983,472.437C342.874,458.183 332.694,439.855 314.366,419.492C326.585,423.567 344.913,441.89 348.983,450.039L348.98,450.04Z" style="fill:rgb(56,102,3);fill-rule:nonzero;"/>
                </g>
            </g>
        </g>
        <g transform="matrix(10.8769,0,0,10.8769,-7137.96,-2608.4)">
            <text x="667.19px" y="290.369px" style="font-family:'MADETOMMY', 'MADE TOMMY';font-size:12px;fill:rgb(56,102,3);">Hespi</text>
        </g>
    </g>
</svg>
